<svg id="visual" viewBox="0 0 900 600" width="900" height="600" xmlns="http://www.w3.org/2000/svg" xmlns:xlink="http://www.w3.org/1999/xlink" version="1.1"><rect x="0" y="0" width="900" height="600" fill="#dac7ff"></rect><path d="M0 158L75 168.2C150 178.3 300 198.7 450 227.2C600 255.7 750 292.3 825 310.7L900 329L900 601L825 601C750 601 600 601 450 601C300 601 150 601 75 601L0 601Z" fill="#5f3e91"></path><path d="M0 362L75 362.7C150 363.3 300 364.7 450 349.7C600 334.7 750 303.3 825 287.7L900 272L900 601L825 601C750 601 600 601 450 601C300 601 150 601 75 601L0 601Z" fill="#7c5cac"></path><path d="M0 325L75 342.8C150 360.7 300 396.3 450 399.2C600 402 750 372 825 357L900 342L900 601L825 601C750 601 600 601 450 601C300 601 150 601 75 601L0 601Z" fill="#9a7bc7"></path><path d="M0 433L75 426.8C150 420.7 300 408.3 450 414.3C600 420.3 750 444.7 825 456.8L900 469L900 601L825 601C750 601 600 601 450 601C300 601 150 601 75 601L0 601Z" fill="#b89be3"></path><path d="M0 521L75 514.7C150 508.3 300 495.7 450 493.5C600 491.3 750 499.7 825 503.8L900 508L900 601L825 601C750 601 600 601 450 601C300 601 150 601 75 601L0 601Z" fill="#d7bcff"></path></svg>